<svg width="20" height="18" viewBox="0 0 20 18" fill="none" xmlns="http://www.w3.org/2000/svg">
<path d="M5 6.02808V3.02808C5 2.49764 5.21071 1.98894 5.58579 1.61386C5.96086 1.23879 6.46957 1.02808 7 1.02808H17C17.5304 1.02808 18.0391 1.23879 18.4142 1.61386C18.7893 1.98894 19 2.49764 19 3.02808V15.0281C19 15.5585 18.7893 16.0672 18.4142 16.4423C18.0391 16.8174 17.5304 17.0281 17 17.0281H11M11 17.0281V10.8561C10.9999 10.3257 10.7891 9.81706 10.414 9.44208L7.414 6.44208C7.03894 6.06713 6.53033 5.8565 6 5.8565C5.46967 5.8565 4.96106 6.06713 4.586 6.44208L1.586 9.44208C1.2109 9.81706 1.00011 10.3257 1 10.8561V15.0281C1 15.5585 1.21071 16.0672 1.58579 16.4423C1.96086 16.8174 2.46957 17.0281 3 17.0281H6M11 17.0281H6M6 13.0281V17.0281M15.001 5.02808H15M11.001 5.02808H11M15.001 9.02808H15M15.001 13.0281H15" stroke="black" stroke-width="1.2" stroke-linecap="round" stroke-linejoin="round"/>
</svg>
