<svg width="38" height="38" viewBox="0 0 38 38" fill="none" xmlns="http://www.w3.org/2000/svg">
<ellipse cx="19.25" cy="18.8042" rx="18.75" ry="18.4375" fill="#1849C6"/>
<ellipse cx="19.25" cy="19.0501" rx="3.5" ry="3.44167" fill="white"/>
<path fill-rule="evenodd" clip-rule="evenodd" d="M16.1274 15.4492C17.034 14.5577 18.2393 14.0615 19.5214 14.0615C20.8035 14.0615 22.0089 14.5603 22.9155 15.4518C23.4907 16.0175 23.9017 16.6972 24.1254 17.4557H27.7285V12.6936C27.7285 11.5764 26.8504 10.7129 25.7142 10.7129H13.3715C12.2353 10.7129 11.2715 11.5764 11.2715 12.6936V17.4557H14.9174C15.1412 16.6972 15.5522 16.0148 16.1274 15.4492V15.4492ZM26.3572 14.2188C26.3572 14.5168 26.1116 14.7583 25.8086 14.7583H24.1628C23.8599 14.7583 23.6143 14.5168 23.6143 14.2188V12.6006C23.6143 12.3027 23.8598 12.0611 24.1628 12.0611H25.8086C26.1116 12.0611 26.3572 12.3026 26.3572 12.6006V14.2188V14.2188Z" fill="white"/>
<path fill-rule="evenodd" clip-rule="evenodd" d="M22.9155 22.1242C22.0089 23.0157 20.8035 23.5014 19.5214 23.5014C18.2393 23.5014 17.034 23.0183 16.1274 22.1268C15.2225 21.237 14.7234 20.0263 14.7215 18.8042H11.2715V24.8306C11.2715 25.9478 12.2353 26.8956 13.3715 26.8956H25.7142C26.8504 26.8956 27.7285 25.9478 27.7285 24.8306V18.8042H24.3213C24.3195 20.0263 23.8204 21.2343 22.9155 22.1242V22.1242Z" fill="white"/>
</svg>
