<svg width="38" height="38" viewBox="0 0 38 38" fill="none" xmlns="http://www.w3.org/2000/svg">
<ellipse cx="19.25" cy="18.8042" rx="18.75" ry="18.4375" fill="#1849C6"/>
<path fill-rule="evenodd" clip-rule="evenodd" d="M27.0605 10.2002H12.0379C11.2174 10.2002 10.5 10.7811 10.5 11.5788V26.3833C10.5 27.1856 11.2174 27.9002 12.0379 27.9002H27.0558C27.8811 27.9002 28.5 27.1809 28.5 26.3833V11.5788C28.5047 10.7811 27.8811 10.2002 27.0605 10.2002V10.2002ZM16.0796 24.954H13.5007V17.07H16.0796V24.954V24.954ZM14.8793 15.8712H14.8605C14.0353 15.8712 13.5007 15.2672 13.5007 14.5111C13.5007 13.7411 14.0493 13.151 14.8933 13.151C15.7373 13.151 16.2531 13.7365 16.2719 14.5111C16.2719 15.2672 15.7373 15.8712 14.8793 15.8712V15.8712ZM25.5039 24.954H22.9251V20.6432C22.9251 19.6104 22.55 18.905 21.6169 18.905C20.9043 18.905 20.4823 19.3799 20.2947 19.8409C20.2244 20.0069 20.2056 20.2328 20.2056 20.4633V24.954H17.6268V17.07H20.2056V18.1673C20.5807 17.6417 21.1668 16.8855 22.5312 16.8855C24.2239 16.8855 25.5039 17.9829 25.5039 20.3481V24.954V24.954Z" fill="white"/>
</svg>
