<svg width="16" height="21" viewBox="0 0 16 21" fill="none" xmlns="http://www.w3.org/2000/svg">
<path d="M14.5455 8.05884C14.5455 6.32288 13.8558 4.65801 12.6283 3.4305C11.4008 2.20299 9.73596 1.51338 8 1.51338C6.26404 1.51338 4.59918 2.20299 3.37166 3.4305C2.14415 4.65801 1.45455 6.32288 1.45455 8.05884C1.45455 10.7439 3.60291 14.2436 8 18.4356C12.3971 14.2436 14.5455 10.7439 14.5455 8.05884ZM8 20.4225C2.66618 15.5745 0 11.4523 0 8.05884C0 5.93711 0.842855 3.90228 2.34315 2.40198C3.84344 0.901693 5.87827 0.0588379 8 0.0588379C10.1217 0.0588379 12.1566 0.901693 13.6569 2.40198C15.1571 3.90228 16 5.93711 16 8.05884C16 11.4523 13.3338 15.5745 8 20.4225Z" fill="#000103" fill-opacity="0.7"/>
<path d="M8.00001 10.2405C8.57867 10.2405 9.13362 10.0107 9.54279 9.60151C9.95196 9.19234 10.1818 8.63738 10.1818 8.05873C10.1818 7.48007 9.95196 6.92512 9.54279 6.51595C9.13362 6.10678 8.57867 5.87691 8.00001 5.87691C7.42136 5.87691 6.8664 6.10678 6.45723 6.51595C6.04806 6.92512 5.81819 7.48007 5.81819 8.05873C5.81819 8.63738 6.04806 9.19234 6.45723 9.60151C6.8664 10.0107 7.42136 10.2405 8.00001 10.2405ZM8.00001 11.6951C7.03559 11.6951 6.11066 11.312 5.42871 10.63C4.74676 9.94807 4.36365 9.02315 4.36365 8.05873C4.36365 7.0943 4.74676 6.16938 5.42871 5.48743C6.11066 4.80548 7.03559 4.42236 8.00001 4.42236C8.96443 4.42236 9.88936 4.80548 10.5713 5.48743C11.2533 6.16938 11.6364 7.0943 11.6364 8.05873C11.6364 9.02315 11.2533 9.94807 10.5713 10.63C9.88936 11.312 8.96443 11.6951 8.00001 11.6951Z" fill="#000103" fill-opacity="0.7"/>
</svg>
