<svg width="20" height="16" viewBox="0 0 20 16" fill="none" xmlns="http://www.w3.org/2000/svg">
<path d="M3.57156 3.98755C3.57156 3.32448 3.83496 2.68858 4.30382 2.21972C4.77267 1.75086 5.40858 1.48746 6.07165 1.48746C6.73471 1.48746 7.37062 1.75086 7.83947 2.21972C8.30833 2.68858 8.57173 3.32448 8.57173 3.98755C8.57173 4.65061 8.30833 5.28652 7.83947 5.75538C7.37062 6.22424 6.73471 6.48764 6.07165 6.48764C5.40858 6.48764 4.77267 6.22424 4.30382 5.75538C3.83496 5.28652 3.57156 4.65061 3.57156 3.98755ZM6.07165 0.0588379C5.02969 0.0588379 4.0304 0.472755 3.29363 1.20953C2.55685 1.94631 2.14293 2.94559 2.14293 3.98755C2.14293 5.02951 2.55685 6.02879 3.29363 6.76557C4.0304 7.50234 5.02969 7.91626 6.07165 7.91626C7.1136 7.91626 8.11289 7.50234 8.84966 6.76557C9.58644 6.02879 10.0004 5.02951 10.0004 3.98755C10.0004 2.94559 9.58644 1.94631 8.84966 1.20953C8.11289 0.472755 7.1136 0.0588379 6.07165 0.0588379ZM13.5719 5.05902C13.5719 4.68012 13.7224 4.31675 13.9903 4.04883C14.2583 3.78091 14.6216 3.63039 15.0005 3.63039C15.3794 3.63039 15.7428 3.78091 16.0107 4.04883C16.2786 4.31675 16.4292 4.68012 16.4292 5.05902C16.4292 5.43791 16.2786 5.80129 16.0107 6.0692C15.7428 6.33712 15.3794 6.48764 15.0005 6.48764C14.6216 6.48764 14.2583 6.33712 13.9903 6.0692C13.7224 5.80129 13.5719 5.43791 13.5719 5.05902ZM15.0005 2.20177C14.2427 2.20177 13.516 2.5028 12.9802 3.03864C12.4443 3.57448 12.1433 4.30123 12.1433 5.05902C12.1433 5.8168 12.4443 6.54356 12.9802 7.07939C13.516 7.61523 14.2427 7.91626 15.0005 7.91626C15.7583 7.91626 16.4851 7.61523 17.0209 7.07939C17.5567 6.54356 17.8578 5.8168 17.8578 5.05902C17.8578 4.30123 17.5567 3.57448 17.0209 3.03864C16.4851 2.5028 15.7583 2.20177 15.0005 2.20177ZM0 11.4878C0 10.9195 0.225773 10.3744 0.627651 9.97253C1.02953 9.57066 1.57459 9.34488 2.14293 9.34488H10.0004C10.5687 9.34488 11.1138 9.57066 11.5156 9.97253C11.9175 10.3744 12.1433 10.9195 12.1433 11.4878V11.6493C12.1419 11.7159 12.1371 11.7824 12.129 11.8485C12.1147 11.9721 12.0883 12.14 12.0361 12.3386C11.8989 12.8624 11.6561 13.3527 11.3225 13.7793C10.4868 14.8522 8.9146 15.7737 6.07165 15.7737C3.22869 15.7737 1.6572 14.8522 0.820744 13.7793C0.486953 13.3528 0.243874 12.8625 0.106432 12.3386C0.0518718 12.1284 0.0169585 11.9137 0.00214295 11.6971C0.00145237 11.6812 0.000976056 11.6652 0.000714259 11.6493V11.6328L0 11.6271V11.4878ZM1.42862 11.615V11.6235C1.43852 11.7436 1.45884 11.8627 1.48934 11.9793C1.55363 12.2278 1.68435 12.5636 1.94721 12.9014C2.4508 13.5472 3.55727 14.3451 6.07165 14.3451C8.58602 14.3451 9.6932 13.5472 10.1961 12.9022C10.4096 12.6288 10.5652 12.3148 10.6532 11.9793C10.684 11.8627 10.7045 11.7437 10.7147 11.6235L10.7154 11.615V11.4878C10.7154 11.2984 10.6401 11.1167 10.5062 10.9827C10.3722 10.8488 10.1905 10.7735 10.0011 10.7735H2.14293C1.95349 10.7735 1.7718 10.8488 1.63784 10.9827C1.50388 11.1167 1.42862 11.2984 1.42862 11.4878V11.615ZM12.484 13.9822C13.1483 14.2079 13.9748 14.3451 15.0005 14.3451C17.287 14.3451 18.5864 13.6643 19.2957 12.8272C19.6407 12.42 19.8171 12.0071 19.9064 11.69C19.9546 11.5199 19.9854 11.3455 19.9986 11.1692L19.9993 11.1435L20 11.1278V11.1007C20.0001 10.8701 19.9547 10.6417 19.8665 10.4286C19.7783 10.2156 19.649 10.022 19.486 9.85893C19.3229 9.69587 19.1293 9.56655 18.9162 9.47834C18.7032 9.39014 18.4748 9.34479 18.2442 9.34488H12.3947C12.7519 9.74418 13.0112 10.2328 13.134 10.7735H18.2442C18.4228 10.7735 18.5671 10.9157 18.5714 11.0921C18.5644 11.1631 18.551 11.2334 18.5314 11.3021C18.4871 11.4592 18.3957 11.6793 18.2049 11.9043C17.8435 12.3321 16.9999 12.9164 15.0005 12.9164C14.1684 12.9164 13.5369 12.815 13.0569 12.6664C12.9298 13.1301 12.7369 13.5732 12.484 13.9822Z" fill="#000103" fill-opacity="0.7"/>
</svg>
