<svg width="16" height="17" viewBox="0 0 16 17" fill="none" xmlns="http://www.w3.org/2000/svg">
<path d="M3.25 0.626709C2.38805 0.626709 1.5614 0.969119 0.951903 1.57861C0.34241 2.18811 0 3.01476 0 3.87671V6.87671C4.19176e-09 7.07562 0.0790175 7.26639 0.21967 7.40704C0.360322 7.54769 0.551088 7.62671 0.75 7.62671C0.948912 7.62671 1.13968 7.54769 1.28033 7.40704C1.42098 7.26639 1.5 7.07562 1.5 6.87671V3.87671C1.5 2.91071 2.284 2.12671 3.25 2.12671H6.25C6.44891 2.12671 6.63968 2.04769 6.78033 1.90704C6.92098 1.76639 7 1.57562 7 1.37671C7 1.1778 6.92098 0.987031 6.78033 0.846379C6.63968 0.705727 6.44891 0.626709 6.25 0.626709H3.25ZM9.75 0.626709C9.55109 0.626709 9.36032 0.705727 9.21967 0.846379C9.07902 0.987031 9 1.1778 9 1.37671C9 1.57562 9.07902 1.76639 9.21967 1.90704C9.36032 2.04769 9.55109 2.12671 9.75 2.12671H12.75C13.716 2.12671 14.5 2.91071 14.5 3.87671V6.87671C14.5 7.07562 14.579 7.26639 14.7197 7.40704C14.8603 7.54769 15.0511 7.62671 15.25 7.62671C15.4489 7.62671 15.6397 7.54769 15.7803 7.40704C15.921 7.26639 16 7.07562 16 6.87671V3.87671C16 3.01476 15.6576 2.18811 15.0481 1.57861C14.4386 0.969119 13.612 0.626709 12.75 0.626709H9.75ZM0.75 9.62671C0.948912 9.62671 1.13968 9.70573 1.28033 9.84638C1.42098 9.98703 1.5 10.1778 1.5 10.3767V13.3767C1.5 14.3427 2.284 15.1267 3.25 15.1267H6.25C6.44891 15.1267 6.63968 15.2057 6.78033 15.3464C6.92098 15.487 7 15.6778 7 15.8767C7 16.0756 6.92098 16.2664 6.78033 16.407C6.63968 16.5477 6.44891 16.6267 6.25 16.6267H3.25C2.38805 16.6267 1.5614 16.2843 0.951903 15.6748C0.34241 15.0653 0 14.2387 0 13.3767V10.3767C0 10.1778 0.0790175 9.98703 0.21967 9.84638C0.360322 9.70573 0.551088 9.62671 0.75 9.62671ZM16 10.3767C16 10.1778 15.921 9.98703 15.7803 9.84638C15.6397 9.70573 15.4489 9.62671 15.25 9.62671C15.0511 9.62671 14.8603 9.70573 14.7197 9.84638C14.579 9.98703 14.5 10.1778 14.5 10.3767V13.3767C14.5 13.8408 14.3156 14.286 13.9874 14.6141C13.6592 14.9423 13.2141 15.1267 12.75 15.1267H9.75C9.55109 15.1267 9.36032 15.2057 9.21967 15.3464C9.07902 15.487 9 15.6778 9 15.8767C9 16.0756 9.07902 16.2664 9.21967 16.407C9.36032 16.5477 9.55109 16.6267 9.75 16.6267H12.75C13.612 16.6267 14.4386 16.2843 15.0481 15.6748C15.6576 15.0653 16 14.2387 16 13.3767V10.3767Z" fill="#000103" fill-opacity="0.7"/>
</svg>
