<svg width="38" height="38" viewBox="0 0 38 38" fill="none" xmlns="http://www.w3.org/2000/svg">
<ellipse cx="18.75" cy="18.8042" rx="18.75" ry="18.4375" fill="#1849C6"/>
<path fill-rule="evenodd" clip-rule="evenodd" d="M29 13.0478C28.2626 13.3633 27.4743 13.5764 26.6436 13.6747C27.4912 13.183 28.1439 12.4046 28.449 11.4786C27.6565 11.9334 26.7792 12.2653 25.8426 12.4414C25.0924 11.6671 24.0244 11.1836 22.8462 11.1836C20.5787 11.1836 18.7436 12.9618 18.7436 15.1538C18.7436 15.4652 18.7775 15.7684 18.8495 16.0593C15.4378 15.8954 12.4117 14.3139 10.3901 11.9088C10.0384 12.4947 9.83492 13.1789 9.83492 13.9041C9.83492 15.2808 10.5639 16.4977 11.6658 17.2106C10.9877 17.1942 10.352 17.0139 9.80102 16.7148C9.80102 16.7312 9.80102 16.7476 9.80102 16.764C9.80102 18.6897 11.2166 20.2917 13.0941 20.6564C12.7508 20.7465 12.3863 20.7957 12.0134 20.7957C11.7506 20.7957 11.4921 20.7711 11.242 20.7219C11.7633 22.2994 13.2806 23.4466 15.0776 23.4794C13.6747 24.5446 11.9032 25.1797 9.97902 25.1797C9.64844 25.1797 9.3221 25.1592 9 25.1223C10.8097 26.2614 12.9669 26.9169 15.281 26.9169C22.8377 26.9169 26.9657 20.8653 26.9657 15.6168C26.9657 15.4447 26.9614 15.2726 26.953 15.1046C27.754 14.5433 28.449 13.8468 29 13.0478V13.0478Z" fill="white"/>
</svg>
